<svg width=".8em" height="1em" id="adobe-acrobat-file" viewBox="0 0 32 40" fill="currentColor" xmlns="http://www.w3.org/2000/svg">
<g id="Group 28">
<path id="Vector" d="M16.9847 27.4714C16.3508 26.9075 15.8143 26.3785 15.4445 26C15.3173 26.6037 15.1405 27.3869 15 28C15.5802 27.7688 16.2515 27.6042 17 27.5089L16.9566 27.473L16.9847 27.4714Z" fill="currentColor"/>
<path id="Vector_2" d="M4.49902 0.000195056C3.21853 0.000195056 0.999279 0 -0.000625044 0C0 1.5 -0.000976562 3.29969 -0.000976562 4.50019V35.5002C-0.000976562 36.8298 0 39.0002 -0.00033012 40.0002C1 40.0002 3.34765 40.0002 4.49902 40.0002H27.499C28.7414 40.0002 31 40.0002 32 40.0002C32 39.0002 31.999 36.7388 31.999 35.5002V15H20.499C19.2652 15 17.999 15 16.999 15C16.998 14 16.999 12.7474 16.999 11.5002V0.000195056H4.49902ZM18.999 0.879101V11.5002C18.999 11.9439 19 12.5 19 13C19.5 13 20.1157 13.0002 20.499 13.0002H31.1201L18.999 0.879101ZM14.499 17.0002C15.877 17.0002 16.999 18.1212 16.999 19.5002C16.999 21.3062 16.7004 23.1174 16.2314 24.8264C16.6554 25.4004 17.126 25.9503 17.626 26.4533C19.148 26.1693 20.784 26.0002 22.499 26.0002C23.877 26.0002 24.999 27.1212 24.999 28.5002C24.999 29.8792 23.877 31.0002 22.499 31.0002C20.573 31.0002 18.6637 30.0433 17.0107 28.6213C16.1337 28.8213 15.3098 29.0596 14.5478 29.3186C13.3588 31.8046 12.0124 33.6701 11.1904 34.3381C10.6494 34.7781 10.081 35.0002 9.49902 35.0002C8.83202 35.0002 8.20445 34.7398 7.73145 34.2678C7.25845 33.7958 6.99902 33.1682 6.99902 32.5002C6.99902 31.8102 7.27583 31.1562 7.75683 30.7072C8.71384 29.8132 10.5793 28.6629 13.0693 27.7229C13.4203 26.9339 13.755 26.0817 14.042 25.1857C12.779 23.2327 11.999 21.1372 11.999 19.5002C11.999 18.1212 13.121 17.0002 14.499 17.0002ZM14.499 19.0002C14.223 19.0002 13.999 19.2252 13.999 19.5002C13.999 20.3152 14.2731 21.3071 14.7471 22.3381C14.9071 21.4081 14.999 20.4572 14.999 19.5002C14.999 19.2252 14.775 19.0002 14.499 19.0002ZM22.499 28.0002C21.556 28.0002 20.6426 28.0545 19.7666 28.1525C20.6646 28.6825 21.595 29.0002 22.499 29.0002C22.775 29.0002 22.999 28.7752 22.999 28.5002C22.999 28.2252 22.775 28.0002 22.499 28.0002ZM11.5928 30.5588C10.4348 31.1518 9.58612 31.7361 9.12012 32.1701C9.01012 32.2741 8.99902 32.4362 8.99902 32.5002C8.99902 32.5772 9.01851 32.7257 9.14551 32.8537C9.27251 32.9817 9.42202 33.0002 9.49902 33.0002C9.60502 33.0002 9.75871 32.9244 9.92871 32.7854V32.7834C10.2577 32.5154 10.8878 31.7218 11.5928 30.5588Z" fill="currentColor"/>
</g>
</svg>
