<svg xmlns="http://www.w3.org/2000/svg" width="1em" height="1em" viewBox="0 0 69.391 69.391" fill="currentColor">
  <path id="Icon_metro-spinner5" data-name="Icon metro-spinner5" d="M2.574,36.733h0l0,.015a4.341,4.341,0,0,0,.09.769l.046.391q.023.192.049.412l.081.554c.058.389.122.822.2,1.285l.3,1.414c.048.252.12.509.189.773l.214.813c.038.138.07.28.116.421l.135.427.28.88.072.225.083.225.17.455.351.931.407.944.209.481c.071.161.154.319.231.479l.479.971c.167.324.353.645.532.971l.273.49c.093.163.2.322.3.484l.605.972a36.248,36.248,0,0,0,2.86,3.746,35.911,35.911,0,0,0,3.435,3.361A35.576,35.576,0,0,0,18.11,62.41a35.082,35.082,0,0,0,4.024,2.11l1.008.411c.167.066.33.138.5.2l.5.176c.332.114.656.235.982.338l.97.287c.16.046.316.1.475.136l.473.115.922.223.9.173.436.083.215.041.215.03.834.116.4.055c.132.019.265.026.394.039l.757.066c.245.021.481.047.713.05l.046,0A4.336,4.336,0,0,0,37.2,71.319l.11,0h0l.015,0a4.339,4.339,0,0,0,.769-.09l.391-.046.412-.049.554-.081c.389-.058.822-.122,1.285-.2l1.414-.3c.252-.048.509-.12.773-.189l.813-.214c.139-.038.28-.07.421-.116l.427-.135.88-.28.225-.072.225-.083.455-.169.931-.351.944-.407.481-.209c.161-.071.319-.154.479-.231l.971-.479c.324-.167.645-.353.971-.532l.49-.273c.163-.093.322-.2.484-.3l.972-.606a36.272,36.272,0,0,0,3.746-2.86A35.973,35.973,0,0,0,60.2,59.624a35.555,35.555,0,0,0,2.786-3.844,35.028,35.028,0,0,0,2.11-4.024l.411-1.008c.066-.167.138-.33.2-.5l.176-.5c.114-.332.235-.656.338-.982l.287-.97c.046-.16.1-.316.137-.475l.115-.474.223-.922.173-.9.083-.436.04-.214.03-.215.116-.834.056-.4c.019-.132.025-.264.038-.394q.034-.388.066-.757c.021-.245.046-.482.05-.713,0-.036,0-.071,0-.107a4.337,4.337,0,0,0,4.319-4.336c0-.037,0-.073,0-.11h0l0-.015a4.339,4.339,0,0,0-.09-.769l-.046-.391q-.023-.192-.049-.412l-.081-.554c-.058-.389-.122-.822-.2-1.285l-.3-1.414c-.048-.252-.12-.509-.189-.773l-.214-.813c-.038-.139-.07-.28-.116-.421l-.135-.427-.28-.88-.072-.225-.083-.225-.17-.455-.351-.931-.407-.944-.209-.481c-.071-.161-.154-.319-.231-.48l-.479-.971c-.167-.324-.353-.645-.532-.971l-.273-.49c-.093-.163-.2-.322-.3-.484l-.605-.972a36.277,36.277,0,0,0-2.86-3.746,35.928,35.928,0,0,0-3.435-3.361,35.554,35.554,0,0,0-3.844-2.786A35.039,35.039,0,0,0,52.4,8.727l-1.008-.411c-.167-.066-.33-.138-.5-.2l-.5-.176c-.332-.114-.656-.235-.982-.338l-.97-.287c-.16-.046-.316-.1-.475-.136l-.473-.115-.922-.223-.9-.173-.436-.083-.215-.04-.215-.03L43.975,6.4l-.4-.056c-.132-.019-.265-.025-.394-.039l-.757-.066c-.245-.021-.481-.046-.713-.05l-.17-.006A4.336,4.336,0,0,0,37.2,1.928l-.11,0h0l-.015,0a4.341,4.341,0,0,0-.769.09l-.391.046-.412.049-.554.081c-.389.058-.822.122-1.285.2l-1.414.3c-.252.048-.509.12-.773.189l-.813.214c-.139.038-.28.07-.421.116l-.427.135-.88.28-.225.072-.225.083-.455.169L27.1,4.3,26.16,4.7l-.481.209c-.161.071-.319.154-.479.231l-.971.479c-.324.167-.645.353-.971.532l-.49.273c-.163.093-.322.2-.484.3l-.972.606a36.272,36.272,0,0,0-3.746,2.86A35.975,35.975,0,0,0,14.2,13.624a35.555,35.555,0,0,0-2.786,3.844,35.027,35.027,0,0,0-2.11,4.024L8.9,22.5c-.066.167-.138.33-.2.5l-.176.5c-.114.332-.235.656-.338.982l-.287.97c-.046.16-.1.316-.137.475l-.115.474-.223.922-.173.9-.083.436-.04.214-.03.215-.116.834-.056.4c-.019.132-.025.264-.038.394q-.034.388-.066.757c-.021.245-.046.482-.05.713,0,.037,0,.073,0,.11a4.336,4.336,0,0,0-4.195,4.333c0,.037,0,.073,0,.11Zm4.979-4.4.009-.039c.044-.22.111-.443.173-.674l.2-.708c.035-.121.063-.244.1-.366l.123-.371.253-.765.065-.2.075-.195.153-.4.315-.808L9.384,27l.186-.417c.063-.14.138-.276.207-.415l.427-.841c.149-.281.315-.557.474-.84l.242-.424c.082-.141.175-.278.263-.418l.537-.84a31.951,31.951,0,0,1,2.53-3.228,31.618,31.618,0,0,1,3.022-2.883,31.234,31.234,0,0,1,3.366-2.373,30.737,30.737,0,0,1,3.506-1.779l.876-.342c.145-.055.286-.116.431-.166l.434-.145c.288-.094.568-.2.85-.281l.84-.235c.138-.037.273-.081.41-.113l.41-.093.8-.182.777-.137.376-.066.185-.033.185-.022.719-.089.346-.044c.113-.015.228-.018.34-.028l.652-.047c.211-.015.414-.036.614-.034l1.11-.025.869.031.368.011.4.026.394.026a4.372,4.372,0,0,0,.677.053l.095,0h.015a4.337,4.337,0,0,0,4.171-3.643l.109.024c.22.044.443.111.674.173l.708.2c.12.035.244.063.366.1l.371.123.765.253.2.065.195.075.4.153.809.315.819.365.417.186c.14.063.276.138.415.207l.841.427c.281.149.557.315.84.474l.424.242c.141.082.278.175.418.263l.84.537a31.948,31.948,0,0,1,3.228,2.53A31.619,31.619,0,0,1,57.2,16.69a31.232,31.232,0,0,1,2.373,3.366,30.709,30.709,0,0,1,1.78,3.506l.342.876c.055.145.116.286.166.431L62,25.3c.094.288.2.568.281.85l.235.84c.037.138.081.273.112.41l.093.41.182.8.137.777.066.376.033.185.022.185.089.719.044.346c.015.113.018.228.028.339q.024.335.047.652c.015.211.036.414.034.614.009.4.017.767.025,1.11-.011.316-.022.606-.031.869l-.011.368-.026.4c-.009.144-.018.275-.026.394a4.476,4.476,0,0,0-.052.677c0,.032,0,.063,0,.095,0,.009,0,.015,0,.015h0a4.337,4.337,0,0,0,3.57,4.159l-.013.06c-.044.22-.111.443-.173.674l-.2.708c-.035.121-.063.244-.1.366l-.123.371L66,43.837l-.065.2-.075.195-.153.4-.315.808-.365.819-.186.417c-.063.14-.138.276-.207.415l-.427.841c-.149.281-.315.557-.474.84l-.242.424c-.082.141-.175.278-.263.418l-.537.84a31.95,31.95,0,0,1-2.53,3.228,31.619,31.619,0,0,1-3.022,2.883,31.234,31.234,0,0,1-3.366,2.373,30.737,30.737,0,0,1-3.506,1.779l-.876.342c-.145.055-.286.116-.431.166l-.434.145c-.288.094-.568.2-.85.281l-.84.235c-.138.037-.273.081-.41.113l-.41.093-.8.182-.777.137-.376.066-.185.033-.185.022-.719.089-.346.044c-.113.015-.228.018-.34.028l-.652.047c-.211.015-.414.036-.614.034l-1.11.025-.869-.031-.368-.011-.4-.026-.394-.026a4.372,4.372,0,0,0-.677-.053l-.095,0H37.1a4.337,4.337,0,0,0-4.167,3.616c-.217-.043-.437-.109-.664-.171l-.708-.2c-.12-.035-.244-.064-.366-.1l-.371-.123-.765-.253-.2-.065-.195-.075-.4-.153-.809-.315-.819-.365-.417-.186c-.14-.063-.276-.138-.415-.207l-.841-.427c-.281-.149-.557-.315-.84-.474l-.424-.242c-.141-.082-.278-.175-.418-.263l-.84-.537a31.929,31.929,0,0,1-3.228-2.53,31.619,31.619,0,0,1-2.883-3.022,31.205,31.205,0,0,1-2.373-3.366,30.716,30.716,0,0,1-1.78-3.506l-.342-.876c-.055-.145-.116-.286-.166-.431l-.145-.434c-.094-.288-.2-.568-.281-.85l-.235-.84c-.037-.138-.081-.273-.112-.41l-.093-.409-.182-.8-.137-.777-.066-.376-.033-.185-.022-.185-.089-.718-.044-.346c-.015-.114-.018-.228-.028-.34q-.024-.334-.047-.651c-.015-.211-.036-.414-.034-.614-.009-.4-.017-.767-.025-1.11.011-.316.022-.606.031-.868q.005-.195.011-.368l.026-.4c.009-.144.018-.275.026-.394a4.5,4.5,0,0,0,.052-.677c0-.032,0-.063,0-.095,0-.009,0-.015,0-.015h0a4.337,4.337,0,0,0-3.689-4.179Z" transform="translate(-2.571 -1.928)"/>
</svg>
