<svg id="Capa_1" enable-background="new 0 0 512 512" height="1em" viewBox="0 0 512 512" width="1em" xmlns="http://www.w3.org/2000/svg" fill="currentColor"><g><path d="m331.25 91.375h120.5v-46.25c0-8.284-6.716-15-15-15h-90.5c-8.284 0-15 6.716-15 15z"/><path d="m180.75 421.625h-180.75v45.25c0 8.284 6.716 15 15 15h150.75c8.284 0 15-6.716 15-15z"/><path d="m331.25 421.625v45.25c0 8.284 6.716 15 15 15h150.75c8.284 0 15-6.716 15-15v-45.25z"/><path d="m180.75 391.625v-270.25h-124.731l-40.898 162.911c-8.816 35.116-13.81 71.155-14.893 107.339z"/><path d="m331.25 121.375v270.25h180.522c-1.083-36.184-6.078-72.223-14.893-107.339l-40.898-162.911z"/><path d="m301.25 180.625v-30h-90.5v30 180.75h90.5zm-60.25 105.5v-60.25c0-8.284 6.716-15 15-15s15 6.716 15 15v60.25c0 8.284-6.716 15-15 15s-15-6.716-15-15z"/><path d="m180.75 91.375v-46.25c0-8.284-6.716-15-15-15h-90.5c-8.284 0-15 6.716-15 15v46.25z"/></g></svg>